{
	"asset":{
		"generator":"Khronos glTF Blender I/O v4.3.47",
		"version":"2.0"
	},
	"extensionsUsed":[
		"KHR_materials_specular"
	],
	"scene":0,
	"scenes":[
		{
			"name":"Scene",
			"nodes":[
				0
			]
		}
	],
	"nodes":[
		{
			"mesh":0,
			"name":"RatRacer",
			"rotation":[
				0.7071068286895752,
				0,
				0,
				0.7071068286895752
			],
			"scale":[
				0.09999999403953552,
				0.09999999403953552,
				0.09999999403953552
			]
		}
	],
	"materials":[
		{
			"doubleSided":true,
			"extensions":{
				"KHR_materials_specular":{
					"specularColorFactor":[
						2.0,
						2.0,
						2.0
					]
				}
			},
			"name":"RatRacerMaterial",
			"pbrMetallicRoughness":{
				"metallicFactor":0.23076923191547394,
				"roughnessFactor":0.7487671971321106
			}
		}
	],
	"meshes":[
		{
			"name":"Mesh",
			"primitives":[
				{
					"attributes":{
						"POSITION":0,
						"NORMAL":1,
						"TEXCOORD_0":2
					},
					"indices":3,
					"material":0
				}
			]
		}
	],
	"accessors":[
		{
			"bufferView":0,
			"componentType":5126,
			"count":378,
			"max":[
				25.0331974029541,
				41.99005126953125,
				7.795437812805176
			],
			"min":[
				-25.0331974029541,
				-41.99005126953125,
				-7.943156719207764
			],
			"type":"VEC3"
		},
		{
			"bufferView":1,
			"componentType":5126,
			"count":378,
			"type":"VEC3"
		},
		{
			"bufferView":2,
			"componentType":5126,
			"count":378,
			"type":"VEC2"
		},
		{
			"bufferView":3,
			"componentType":5123,
			"count":852,
			"type":"SCALAR"
		}
	],
	"bufferViews":[
		{
			"buffer":0,
			"byteLength":4536,
			"byteOffset":0,
			"target":34962
		},
		{
			"buffer":0,
			"byteLength":4536,
			"byteOffset":4536,
			"target":34962
		},
		{
			"buffer":0,
			"byteLength":3024,
			"byteOffset":9072,
			"target":34962
		},
		{
			"buffer":0,
			"byteLength":1704,
			"byteOffset":12096,
			"target":34963
		}
	],
	"buffers":[
		{
			"byteLength":13800,
			"uri":"SM_RatRacer.bin"
		}
	]
}
